<svg width="32" height="32" viewBox="0 0 32 32" fill="none" xmlns="http://www.w3.org/2000/svg">
  <defs>
    <linearGradient id="shell" x1="4" y1="4" x2="28" y2="28" gradientUnits="userSpaceOnUse">
      <stop stop-color="#7C5CFF"/>
      <stop offset="1" stop-color="#42D7C7"/>
    </linearGradient>
    <linearGradient id="core" x1="10" y1="9" x2="23" y2="24" gradientUnits="userSpaceOnUse">
      <stop stop-color="#F5F0FF"/>
      <stop offset="1" stop-color="#9B7CFF"/>
    </linearGradient>
    <filter id="glow" x="0" y="0" width="32" height="32" filterUnits="userSpaceOnUse" color-interpolation-filters="sRGB">
      <feDropShadow dx="0" dy="4" stdDeviation="3" flood-color="#7C5CFF" flood-opacity=".32"/>
    </filter>
  </defs>
  <rect x="3.75" y="3.75" width="24.5" height="24.5" rx="7" fill="#0A0E1C"/>
  <path d="M16 4.75 25.35 10.15V21.85L16 27.25 6.65 21.85V10.15L16 4.75Z" stroke="url(#shell)" stroke-width="1.8" filter="url(#glow)"/>
  <path d="M16 9.2 21.5 12.38V19.62L16 22.8 10.5 19.62V12.38L16 9.2Z" fill="url(#core)" fill-opacity=".16" stroke="url(#core)" stroke-width="1.5"/>
  <path d="M12.1 13.25 16 11.05 19.9 13.25M12.1 18.75 16 20.95 19.9 18.75M16 11.05V15.95M16 20.95V15.95M12.1 13.25V18.75M19.9 13.25V18.75" stroke="#C9BEFF" stroke-width="1.15" stroke-linecap="round" stroke-linejoin="round"/>
  <circle cx="16" cy="16" r="2.1" fill="#42D7C7"/>
</svg>
